<svg width="211" height="62" viewBox="0 0 211 62" fill="none" xmlns="http://www.w3.org/2000/svg">
<circle cx="31" cy="31" r="31" fill="#09B850"/>
<path d="M13.6156 33.2596C14.9718 33.2596 16.0711 32.1602 16.0711 30.8041C16.0711 29.448 14.9718 28.3486 13.6156 28.3486C12.2595 28.3486 11.1602 29.448 11.1602 30.8041C11.1602 32.1602 12.2595 33.2596 13.6156 33.2596Z" fill="white"/>
<path d="M48.9753 37.3357H48.6315C47.7966 37.3357 47.1582 36.6972 47.1582 35.8624V25.7458C47.1582 24.9109 47.7966 24.2725 48.6315 24.2725H48.9753C49.8101 24.2725 50.4486 24.9109 50.4486 25.7458V35.9115C50.4486 36.6972 49.8101 37.3357 48.9753 37.3357Z" fill="white"/>
<path d="M42.4421 43.916H42.0983C41.2634 43.916 40.625 43.2776 40.625 42.4427V19.1647C40.625 18.3298 41.2634 17.6914 42.0983 17.6914H42.4421C43.2769 17.6914 43.9154 18.3298 43.9154 19.1647V42.3936C43.9154 43.2285 43.2278 43.916 42.4421 43.916Z" fill="white"/>
<path d="M35.862 35.715H35.5182C34.6833 35.715 34.0449 35.0766 34.0449 34.2417V27.3664C34.0449 26.5315 34.6833 25.8931 35.5182 25.8931H35.862C36.6968 25.8931 37.3353 26.5315 37.3353 27.3664V34.2417C37.3353 35.0766 36.6968 35.715 35.862 35.715Z" fill="white"/>
<path d="M17.6917 31.0987C17.9863 32.3265 18.723 33.014 19.607 33.1613C20.0981 33.2595 20.5401 33.6033 20.7365 34.0453L27.1699 49.5149C27.4154 50.0551 27.9556 50.3988 28.5449 50.3988H29.3307C30.1656 50.3988 30.804 49.7604 30.804 48.9256V12.6334C30.804 11.7986 30.1656 11.1602 29.3307 11.1602H28.4958C27.9065 11.1602 27.3663 11.5039 27.1208 12.0441L20.6874 27.5628C20.4909 28.0539 20.049 28.3486 19.5579 28.4468C18.6739 28.6432 17.9372 29.2817 17.6426 30.5094C17.6426 30.7058 17.6426 30.9023 17.6917 31.0987ZM23.1429 30.2147L26.2859 22.6027C26.5314 21.9643 27.5136 22.1607 27.5136 22.8483V38.7107C27.5136 39.3983 26.5314 39.5947 26.2859 38.9563L23.1429 31.3443C22.9955 31.0005 22.9955 30.6076 23.1429 30.2147Z" fill="white"/>
<path d="M108.376 15.96V45H102.92V29.864L103.184 21.372H103.096L95.044 45H90.072L82.064 21.372H81.976L82.284 29.864V45H76.784V15.96H85.584L90.82 31.8L92.668 38.356H92.756L94.648 31.844L99.84 15.96H108.376ZM118.349 19.832C117.087 19.832 116.149 19.568 115.533 19.04C114.917 18.4827 114.609 17.676 114.609 16.62C114.609 15.5347 114.917 14.728 115.533 14.2C116.149 13.6427 117.087 13.364 118.349 13.364C119.61 13.364 120.549 13.6427 121.165 14.2C121.781 14.728 122.089 15.5347 122.089 16.62C122.089 17.676 121.781 18.4827 121.165 19.04C120.549 19.568 119.61 19.832 118.349 19.832ZM121.341 23V45H115.313V23H121.341ZM126.455 45V41.128L136.223 29.864L138.731 27.356L135.079 27.444H126.543V23H145.419V26.872L135.695 38.092L133.187 40.644L137.191 40.556H145.771V45H126.455ZM149.486 45V41.128L159.254 29.864L161.762 27.356L158.11 27.444H149.574V23H168.45V26.872L158.726 38.092L156.218 40.644L160.222 40.556H168.802V45H149.486ZM179.733 13.364V38.224C179.733 39.2507 179.909 39.9693 180.261 40.38C180.613 40.7907 181.2 40.996 182.021 40.996C182.52 40.996 182.93 40.9667 183.253 40.908C183.576 40.82 183.986 40.7027 184.485 40.556L183.957 44.516C183.458 44.8093 182.828 45.0293 182.065 45.176C181.332 45.352 180.598 45.44 179.865 45.44C177.724 45.44 176.154 44.9267 175.157 43.9C174.189 42.844 173.705 41.172 173.705 38.884V13.364H179.733ZM198.052 45.44C195.734 45.44 193.71 44.9853 191.98 44.076C190.278 43.1667 188.958 41.8613 188.02 40.16C187.081 38.4587 186.612 36.4053 186.612 34C186.612 31.5947 187.081 29.5413 188.02 27.84C188.958 26.1387 190.264 24.8333 191.936 23.924C193.637 23.0147 195.573 22.56 197.744 22.56C199.973 22.56 201.865 23.0147 203.42 23.924C204.974 24.804 206.162 26.0213 206.984 27.576C207.805 29.1013 208.216 30.8467 208.216 32.812C208.216 33.3987 208.201 33.956 208.172 34.484C208.142 35.012 208.098 35.4813 208.04 35.892H190.484V31.712H205.4L202.496 32.768C202.496 30.92 202.07 29.4973 201.22 28.5C200.398 27.5027 199.225 27.004 197.7 27.004C196.585 27.004 195.617 27.268 194.796 27.796C194.004 28.324 193.402 29.116 192.992 30.172C192.581 31.1987 192.376 32.504 192.376 34.088C192.376 35.6427 192.596 36.9333 193.036 37.96C193.505 38.9573 194.15 39.7053 194.972 40.204C195.822 40.7027 196.834 40.952 198.008 40.952C199.298 40.952 200.34 40.7027 201.132 40.204C201.924 39.7053 202.54 39.016 202.98 38.136L207.776 39.984C207.306 41.128 206.588 42.1107 205.62 42.932C204.681 43.7533 203.552 44.384 202.232 44.824C200.941 45.2347 199.548 45.44 198.052 45.44Z" fill="#202124"/>
</svg>
